<svg width="128" height="128" viewBox="0 0 128 128" fill="none" xmlns="http://www.w3.org/2000/svg">
<path fill-rule="evenodd" clip-rule="evenodd" d="M67.2785 42.3639C82.9879 42.3639 94.7747 55.0989 94.7747 70.8083C94.7747 86.5177 88.6118 102.038 72.9674 103.993C62.3831 105.317 46.7449 94.1826 41.5291 82.6548C41.4215 82.6583 41.3132 82.6602 41.2044 82.6602C37.9259 82.6602 32.9339 78.2222 31.7229 73.1787C30.6431 68.6815 30.8741 60.4444 42.8444 55.4667C45.96 43.1382 53.9819 42.3639 67.2785 42.3639ZM38.9358 70.1618L39.9174 73.8252Z" fill="white"/>
<path fill-rule="evenodd" clip-rule="evenodd" d="M51.8027 45.5998C48.2433 47.1217 45.6988 49.9767 44.2233 55.8151C44.1134 56.2501 43.8047 56.6076 43.3905 56.7799C37.6733 59.1573 34.9368 62.2296 33.6928 65.0729C32.4351 67.9478 32.6132 70.7948 33.1058 72.8466C33.635 75.0505 35.0168 77.1917 36.6742 78.7857C38.3805 80.4266 40.1087 81.2379 41.2044 81.2379C41.2972 81.2379 41.3898 81.2364 41.4818 81.2333C42.0572 81.2142 42.5875 81.5439 42.8248 82.0685C45.3004 87.54 50.3128 93.0202 56.0426 96.9725C61.807 100.949 68.0043 103.181 72.791 102.582C80.1064 101.668 85.1965 97.6105 88.5044 91.8503C91.8394 86.0431 93.3525 78.5026 93.3525 70.8083C93.3525 55.8204 82.14 43.7861 67.2785 43.7861C60.5732 43.7861 55.546 43.9993 51.8027 45.5998ZM50.6844 42.9844C55.0551 41.1156 60.6872 40.9417 67.2785 40.9417C83.8358 40.9417 96.197 54.3773 96.197 70.8083C96.197 78.8234 94.6286 86.8978 90.971 93.2669C87.2864 99.6831 81.4728 104.364 73.1438 105.405C67.3462 106.129 60.4322 103.456 54.4275 99.3139C48.6573 95.3337 43.4574 89.8156 40.6155 84.0495C38.5962 83.8278 36.444 82.5107 34.7025 80.8358C32.7415 78.9499 31.0218 76.3504 30.34 73.5107C29.7528 71.0653 29.5065 67.5453 31.0869 63.9329C32.6248 60.4176 35.8099 57.0035 41.6469 54.4323C43.324 48.366 46.2928 44.8621 50.6844 42.9844ZM38.5677 68.788C39.3264 68.5848 40.1063 69.035 40.3096 69.7937L41.2912 73.4571C41.4945 74.2158 41.0442 74.9956 40.2855 75.1989C39.5268 75.4022 38.747 74.952 38.5437 74.1933L37.5621 70.5299C37.3588 69.7712 37.809 68.9913 38.5677 68.788Z" fill="black"/>
<path fill-rule="evenodd" clip-rule="evenodd" d="M79.4518 67.181C79.9354 66.9802 80.4903 67.2094 80.6911 67.693C81.731 70.1967 82.4932 72.3387 82.9681 74.1109C83.4373 75.8621 83.6499 77.3366 83.518 78.4695C83.3803 79.6524 82.8343 80.6386 81.7284 81.089C80.7281 81.4963 79.4814 81.3666 78.1434 80.9599C77.6424 80.8076 77.3597 80.278 77.512 79.777C77.6643 79.276 78.194 78.9933 78.695 79.1456C79.9068 79.5139 80.6278 79.4897 81.0132 79.3327C81.293 79.2188 81.5505 78.9711 81.6344 78.2503C81.7242 77.4795 81.5874 76.285 81.1364 74.6017C80.691 72.9396 79.9621 70.8818 78.9399 68.4203C78.739 67.9367 78.9682 67.3819 79.4518 67.181Z" fill="black"/>
<path fill-rule="evenodd" clip-rule="evenodd" d="M84.3715 86.9932C84.5967 87.4659 84.396 88.0317 83.9232 88.2569C82.1095 89.1208 79.9884 89.5342 77.5896 89.5342C75.1965 89.5342 72.3512 89.1228 69.0686 88.322C68.5599 88.1979 68.2481 87.6849 68.3722 87.1762C68.4963 86.6675 69.0093 86.3556 69.518 86.4797C72.7137 87.2593 75.3993 87.6379 77.5896 87.6379C79.7742 87.6379 81.6037 87.2612 83.1078 86.5449C83.5806 86.3197 84.1464 86.5204 84.3715 86.9932Z" fill="black"/>
<path fill-rule="evenodd" clip-rule="evenodd" d="M69.8859 58.6009C71.4568 58.6009 72.7303 60.1662 72.7303 62.0972C72.7303 64.0281 71.4568 65.5935 69.8859 65.5935C68.3149 65.5935 67.0414 64.0281 67.0414 62.0972C67.0414 60.1662 68.3149 58.6009 69.8859 58.6009ZM88.1377 58.6009C89.7087 58.6009 90.9822 60.1662 90.9822 62.0972C90.9822 64.0281 89.7087 65.5935 88.1377 65.5935C86.5668 65.5935 85.2933 64.0281 85.2933 62.0972C85.2933 60.1662 86.5668 58.6009 88.1377 58.6009ZM68.9377 60.0577C68.545 60.0577 68.2266 60.449 68.2266 60.9318C68.2266 61.4145 68.545 61.8058 68.9377 61.8058C69.3305 61.8058 69.6489 61.4145 69.6489 60.9318C69.6489 60.449 69.3305 60.0577 68.9377 60.0577ZM87.1896 60.0577C86.7969 60.0577 86.4785 60.449 86.4785 60.9318C86.4785 61.4145 86.7969 61.8058 87.1896 61.8058C87.5823 61.8058 87.9007 61.4145 87.9007 60.9318C87.9007 60.449 87.5823 60.0577 87.1896 60.0577Z" fill="black"/>
<path fill-rule="evenodd" clip-rule="evenodd" d="M93.9451 55.4246C93.9451 56.2779 91.4167 56.2779 89.2044 56.2779C86.9921 56.2779 81.56 57.4868 81.56 57.0601C81.56 56.6335 86.5953 54.5713 89.2044 54.5713L89.592 54.5714C92.0213 54.5734 93.9451 54.6139 93.9451 55.4246ZM70.7155 54.5713C74.7451 54.9861 77.8859 56.6335 77.8859 57.0601C76.997 58.435 72.9081 56.6453 70.7155 56.2779C68.5032 56.2779 65.1451 55.8394 65.1451 54.9861C65.1451 54.1754 66.864 54.4548 69.2933 54.4527L70.7155 54.5713Z" fill="black"/>
<path fill-rule="evenodd" clip-rule="evenodd" d="M77.1051 57.5494C77.1051 57.5494 77.1043 57.5487 77.1029 57.5473C77.1045 57.5487 77.1052 57.5495 77.1051 57.5494ZM77.1007 56.5318C77.1007 56.5318 77.0998 56.5329 77.0977 56.5346C77.0995 56.5326 77.1006 56.5317 77.1007 56.5318ZM67.8076 53.4794C68.2693 53.4918 68.7635 53.505 69.2925 53.5046C69.319 53.5046 69.3456 53.5057 69.372 53.5079L70.7943 53.6264C70.8004 53.6269 70.8065 53.6275 70.8126 53.6281C72.9245 53.8455 74.8031 54.385 76.1648 54.9313C76.8438 55.2036 77.4143 55.4857 77.8307 55.7431C78.0352 55.8695 78.2304 56.007 78.3868 56.1516C78.464 56.223 78.5564 56.3186 78.636 56.4367C78.7047 56.5387 78.834 56.7594 78.834 57.0602C78.834 57.2428 78.7813 57.4216 78.6821 57.575C78.2041 58.3143 77.3777 58.4936 76.7334 58.5171C76.0629 58.5416 75.3013 58.4118 74.5784 58.2467C73.9393 58.1007 73.269 57.9118 72.648 57.7369C72.5575 57.7114 72.4679 57.6861 72.3797 57.6614C71.7015 57.4711 71.1099 57.3117 70.6327 57.2259C69.4918 57.2206 68.0783 57.1073 66.9203 56.8828C66.3349 56.7694 65.7591 56.6173 65.3074 56.4089C65.0837 56.3058 64.8364 56.1647 64.6321 55.9657C64.4225 55.7616 64.197 55.4318 64.197 54.9861C64.197 54.7058 64.2754 54.4181 64.4615 54.1666C64.6388 53.9269 64.8678 53.7823 65.0689 53.6936C65.442 53.529 65.8869 53.4854 66.2672 53.4689C66.6725 53.4514 67.1485 53.462 67.6452 53.4751C67.6989 53.4765 67.753 53.478 67.8076 53.4794ZM81.8347 56.2014C81.8289 56.201 81.8262 56.2006 81.8263 56.2005C81.8264 56.2005 81.8293 56.2007 81.8347 56.2014ZM84.0835 54.7633C85.6835 54.189 87.7256 53.6231 89.2044 53.6231L89.5928 53.6232C90.7887 53.6242 91.9492 53.633 92.8132 53.7561C93.2369 53.8164 93.688 53.9161 94.0569 54.1152C94.454 54.3295 94.8933 54.7489 94.8933 55.4246C94.8933 56.2187 94.275 56.6189 93.8987 56.7852C93.4939 56.9641 92.994 57.0567 92.5149 57.1129C91.5509 57.2261 90.3216 57.2261 89.2435 57.2261L89.2044 57.2261C88.2384 57.2261 86.5457 57.4842 84.9369 57.7296C84.8561 57.7419 84.7755 57.7542 84.6953 57.7664C83.8847 57.8898 83.1098 58.0053 82.5358 58.0616C82.2566 58.0889 81.9769 58.1075 81.7495 58.096C81.6476 58.0908 81.4745 58.0768 81.2991 58.0133C81.1755 57.9686 80.6118 57.7263 80.6118 57.0602C80.6118 56.8185 80.6981 56.6358 80.7562 56.5366C80.8174 56.4319 80.8868 56.3528 80.9377 56.3005C81.039 56.1965 81.1533 56.1113 81.2478 56.047C81.4433 55.9138 81.695 55.7758 81.9676 55.6412C82.5211 55.3677 83.267 55.0564 84.0835 54.7633ZM93.1826 55.0258C93.1827 55.0258 93.1814 55.0266 93.1787 55.0282C93.1811 55.0265 93.1825 55.0258 93.1826 55.0258Z" fill="black"/>
<path fill-rule="evenodd" clip-rule="evenodd" d="M68.9135 55.6882C70.678 55.8151 72.7244 56.2574 75.0526 57.015C75.7199 57.2322 76.7729 57.358 78.2117 57.3925L78.3092 57.39C79.6982 57.3522 80.7188 57.2273 81.3709 57.015C83.6991 56.2574 85.7455 55.8151 87.5099 55.6882C90.0078 55.5086 94.0325 55.8105 99.5839 56.5939L99.7526 56.6178V59.5615C99.0419 59.8738 98.6803 60.1837 98.6678 60.4911C98.3578 68.0828 95.8235 72.2305 90.1444 72.2305C84.6749 72.2305 82.0767 67.4383 79.7614 61.2658C79.458 60.4567 78.9564 60.0437 78.2567 60.0269L78.2117 60.0263C77.4885 60.0263 76.972 60.4395 76.662 61.2658C74.3468 67.4383 73.3651 72.2305 66.279 72.2305C60.6815 72.2305 56.1693 68.0828 55.8594 60.4911C55.8411 60.0439 55.1704 59.5556 54.7746 59.6142L28.4044 62.4544L28.9726 61.1763L54.7745 56.632L54.7746 56.6178C60.4133 55.8166 66.3904 55.5067 68.9135 55.6882ZM67.553 56.628C63.0589 56.3181 59.148 57.2477 58.2182 58.3322C57.2883 59.4167 57.48 70.6913 65.6934 71.1561C75.4963 71.1561 74.6816 60.1914 74.2167 59.1069C73.7518 58.0223 72.0472 56.9378 67.553 56.628ZM88.8551 56.628C84.3609 56.9378 82.6563 58.0223 82.1914 59.1069C81.7264 60.1914 82.5013 71.6209 90.7147 71.1561C98.9281 70.6913 97.2235 59.4167 96.2936 58.3322C95.3638 57.2477 93.3492 56.3181 88.8551 56.628Z" fill="black"/>
<path fill-rule="evenodd" clip-rule="evenodd" d="M99.5155 56.8237C93.9837 56.0441 89.9924 55.7473 87.5269 55.9246C85.7873 56.0498 83.7606 56.4867 81.4442 57.2405C80.7581 57.4637 79.7091 57.5891 78.3157 57.6269L78.2178 57.6294C78.2138 57.6295 78.2099 57.6295 78.206 57.6294C76.7631 57.5949 75.681 57.4689 74.9792 57.2405C72.6628 56.4867 70.6361 56.0498 68.8965 55.9246C66.4091 55.7457 60.494 56.0495 54.8854 56.8415C54.8639 56.8529 54.8405 56.8611 54.8156 56.8655L29.1379 61.3878L28.7882 62.1746L54.745 59.379C54.8957 59.3579 55.0522 59.3894 55.1917 59.4416C55.3354 59.4955 55.4776 59.5775 55.6041 59.6759C55.8443 59.8627 56.0829 60.1541 56.0962 60.4815C56.2494 64.2324 57.4391 67.109 59.2591 69.0454C61.0778 70.9805 63.5413 71.9935 66.279 71.9935C68.0239 71.9935 69.3767 71.6985 70.4617 71.172C71.5453 70.6463 72.3758 69.8829 73.0673 68.9242C73.7609 67.9625 74.3136 66.8057 74.8394 65.4948C75.1635 64.6868 75.4735 63.8307 75.7995 62.9302C76.0042 62.3648 76.2153 61.7819 76.4401 61.1826C76.6052 60.7424 76.8328 60.3918 77.1338 60.1511C77.4381 59.9077 77.8016 59.7893 78.2117 59.7893L78.2145 59.7893L78.2595 59.7899L78.2624 59.7899C78.6608 59.7995 79.0133 59.9234 79.3083 60.1663C79.6001 60.4065 79.8217 60.7515 79.9834 61.1826C81.1402 64.2667 82.3574 66.9753 83.953 68.9121C85.5396 70.838 87.4935 71.9935 90.1444 71.9935C92.9166 71.9935 94.8926 70.9866 96.225 69.0723C97.569 67.1412 98.2766 64.2603 98.4309 60.4815C98.441 60.2333 98.5904 60.0228 98.7941 59.8482C98.9728 59.695 99.2161 59.5494 99.5155 59.4088V56.8237ZM87.4929 55.4518C90.0179 55.2702 94.0642 55.5756 99.617 56.3592L99.7858 56.3831C99.9027 56.3997 99.9896 56.4997 99.9896 56.6178V59.5615C99.9896 59.6556 99.934 59.7407 99.8479 59.7786C99.5023 59.9304 99.2581 60.0749 99.1026 60.2081C98.9448 60.3434 98.907 60.4415 98.9046 60.5008C98.7489 64.3136 98.0344 67.3024 96.6141 69.3431C95.182 71.4006 93.0513 72.4676 90.1444 72.4676C87.3258 72.4676 85.2458 71.2269 83.5871 69.2136C81.9375 67.2112 80.6979 64.4374 79.5395 61.349C79.3977 60.971 79.2168 60.705 79.0069 60.5322C78.8006 60.3624 78.5529 60.2714 78.2523 60.2639C78.2518 60.2639 78.2514 60.2639 78.2509 60.2638L78.2117 60.2634C78.2113 60.2634 78.2108 60.2634 78.2104 60.2634C77.8978 60.2636 77.6419 60.3518 77.4299 60.5213C77.2144 60.6937 77.0288 60.9629 76.8839 61.349C76.6637 61.9363 76.4543 62.5146 76.25 63.0787C75.9212 63.9865 75.6057 64.8577 75.2794 65.6713C74.7485 66.995 74.1788 68.1935 73.4518 69.2015C72.7227 70.2124 71.8345 71.0329 70.6687 71.5986C69.5044 72.1635 68.0771 72.4676 66.279 72.4676C63.4192 72.4676 60.8278 71.4067 58.9136 69.3701C57.0006 67.3347 55.7793 64.3416 55.6225 60.5008C55.6176 60.381 55.5117 60.2046 55.313 60.0501C55.22 59.9778 55.1192 59.9208 55.0253 59.8856C54.9287 59.8494 54.8549 59.8419 54.8093 59.8487C54.8062 59.8491 54.8031 59.8495 54.8 59.8499L28.4298 62.69C28.3455 62.6991 28.2628 62.6625 28.2128 62.594C28.1629 62.5255 28.1534 62.4355 28.1878 62.3581L28.756 61.08C28.788 61.0079 28.8538 60.9565 28.9315 60.9428L54.6569 56.412C54.6823 56.3975 54.7107 56.3875 54.7412 56.3831C60.3871 55.5809 66.3832 55.2686 68.9305 55.4518C70.7199 55.5805 72.7859 56.0282 75.1259 56.7897C75.7578 56.9953 76.7799 57.1208 78.2115 57.1554L78.3028 57.153C78.3028 57.153 78.3029 57.153 78.3029 57.153C79.6874 57.1154 80.6794 56.9908 81.2975 56.7897C83.6376 56.0282 85.7035 55.5805 87.4929 55.4518ZM61.5027 56.7247C63.1803 56.3911 65.3026 56.2352 67.5693 56.3915C69.8302 56.5474 71.409 56.8991 72.4887 57.3588C73.5691 57.8189 74.1701 58.3966 74.4346 59.0135C74.5073 59.1832 74.5736 59.5032 74.6214 59.9082C74.6703 60.3225 74.7024 60.8498 74.6966 61.4494C74.685 62.6475 74.5219 64.1456 74.0302 65.6135C73.5384 67.0818 72.7144 68.5296 71.375 69.6104C70.0327 70.6936 68.1911 71.3932 65.6934 71.3932C65.6889 71.3932 65.6844 71.393 65.68 71.3928C61.4341 71.1525 59.2745 68.1079 58.3012 65.0484C57.8141 63.5174 57.6176 61.9684 57.6018 60.7312C57.5939 60.1126 57.6311 59.5671 57.7016 59.1372C57.7368 58.9224 57.781 58.7324 57.8339 58.5745C57.8853 58.421 57.9509 58.2798 58.0382 58.1779C58.307 57.8644 58.7669 57.5855 59.3464 57.3458C59.932 57.1035 60.6641 56.8915 61.5027 56.7247ZM59.5276 57.7839C58.9718 58.0138 58.5942 58.2577 58.3981 58.4865C58.3692 58.5202 58.3273 58.5942 58.2834 58.7252C58.2409 58.8519 58.2019 59.0157 58.1694 59.2139C58.1045 59.61 58.0682 60.1269 58.0759 60.7251C58.0912 61.9214 58.2817 63.4235 58.7529 64.9047C59.6957 67.8682 61.7369 70.6918 65.7001 70.9191C68.1003 70.9178 69.8309 70.2472 71.0773 69.2415C72.3277 68.2325 73.1089 66.8714 73.5807 65.4629C74.0526 64.054 74.2113 62.6076 74.2226 61.4448C74.2282 60.864 74.197 60.3568 74.1506 59.9638C74.1032 59.5616 74.0423 59.3017 73.9988 59.2003C73.7984 58.7326 73.3146 58.2258 72.3029 57.795C71.2906 57.3639 69.7699 57.0184 67.5367 56.8644C65.3092 56.7109 63.2291 56.8648 61.5952 57.1897C60.778 57.3522 60.0772 57.5565 59.5276 57.7839ZM88.8387 56.3915C93.3582 56.0799 95.4699 57.0073 96.4736 58.1779C96.5546 58.2724 96.6269 58.4054 96.692 58.5557C96.7586 58.7097 96.8237 58.8966 96.8854 59.1096C97.0088 59.5361 97.1218 60.0791 97.2041 60.6968C97.3688 61.9316 97.4134 63.4808 97.1669 65.0142C96.9206 66.5461 96.3808 68.0796 95.3618 69.2635C94.337 70.4541 92.8423 71.2732 90.7281 71.3928C88.6136 71.5125 86.9661 70.8649 85.7002 69.8037C84.4398 68.747 83.5683 67.2897 82.9782 65.7998C82.3878 64.3088 82.0738 62.7716 81.9364 61.5387C81.8676 60.922 81.8427 60.3781 81.8502 59.9509C81.8539 59.7375 81.8658 59.5505 81.885 59.3967C81.9035 59.248 81.9309 59.1128 81.9735 59.0135C82.2379 58.3966 82.8389 57.8189 83.9194 57.3588C84.9991 56.8991 86.5778 56.5474 88.8387 56.3915ZM96.1136 58.4865C95.2577 57.4881 93.3402 56.5563 88.8713 56.8644C86.6381 57.0184 85.1175 57.3639 84.1051 57.795C83.0935 58.2258 82.6097 58.7326 82.4092 59.2003C82.3936 59.2365 82.3726 59.3177 82.3554 59.4554C82.3389 59.5879 82.3277 59.7572 82.3242 59.9592C82.3171 60.3629 82.3407 60.8862 82.4075 61.4862C82.5413 62.6868 82.8472 64.1814 83.419 65.6252C83.9913 67.0702 84.8244 68.4509 86.0048 69.4404C87.1797 70.4253 88.7091 71.0322 90.7013 70.9195C92.6938 70.8067 94.066 70.0422 95.0025 68.9542C95.9449 67.8594 96.4608 66.4194 96.6988 64.939C96.9366 63.46 96.894 61.9582 96.7342 60.7595C96.6543 60.1604 96.5457 59.641 96.43 59.2415C96.3722 59.0416 96.3134 58.8746 96.2569 58.744C96.1988 58.6098 96.1489 58.5276 96.1136 58.4865Z" fill="black"/>
<path fill-rule="evenodd" clip-rule="evenodd" d="M38.0044 82.0676L41.9155 83.0157L47.7229 92.2602C45.8391 91.169 44.0613 89.7467 42.3896 87.9935C40.7179 86.2402 39.2562 84.2649 38.0044 82.0676ZM44.8785 33.3564C47.7229 23.796 56.6908 21.7811 71.7822 26.6009C94.4192 33.8305 95.4667 48.1185 95.4667 50.7221C95.4667 52.6974 94.4993 56.7176 92.6815 57.8963C90.8252 55.1769 87.1111 52.1893 83.5555 51.2C77.8667 50.0741 74.963 50.5482 67.9111 49.8963C60.8593 49.2444 55.9131 48.9959 54.0044 48.6453C53.234 48.5038 49.2044 48.2305 50.1283 50.7221L50.2199 51.0995C51.1915 55.1266 50.7291 57.3402 50.7291 58.6885C50.7291 60.0507 49.7288 65.3238 47.7281 74.5078L47.6044 75.075C45.7871 70.8873 45.6889 67.437 44.1674 64.4083C42.9542 61.9933 41.8178 61.3398 39.2296 61.2148C36.8191 61.2148 35.0222 62.3407 33.3037 65.1852C32.1185 67.3185 31.8512 69.4298 31.1303 71.5194L31.0196 71.3528C29.4119 68.9239 28.5402 67.1227 28.4044 65.949C27.9443 61.9718 29.6604 58.7616 29.5896 57.8898C29.1776 52.8146 26.5081 45.2083 33.1451 39.875L33.41 39.6633C37.7261 36.233 41.5489 34.1308 44.8785 33.3564Z" fill="black"/>
<path fill-rule="evenodd" clip-rule="evenodd" d="M53.9066 25.2768C49.6874 26.3084 46.9161 29.0016 45.5601 33.5592C45.4872 33.8042 45.2885 33.9912 45.0396 34.0491C41.857 34.7892 38.1313 36.8195 33.8533 40.2193C33.853 40.2195 33.8528 40.2198 33.8525 40.22L33.5906 40.4293C33.5903 40.4295 33.59 40.4298 33.5897 40.43C30.4722 42.9356 29.5402 45.9523 29.4347 49.0037C29.3814 50.5441 29.5398 52.0899 29.7427 53.5884C29.8025 54.0302 29.867 54.4722 29.9307 54.9095C30.0797 55.9309 30.2249 56.9265 30.2984 57.8323C30.3162 58.0515 30.277 58.2829 30.2347 58.4756C30.1896 58.6813 30.1239 58.9146 30.0514 59.1593C30.0153 59.2815 29.9769 59.4084 29.937 59.5404C29.8129 59.9512 29.6737 60.4115 29.5397 60.9321C29.1881 62.2976 28.8948 63.9995 29.1108 65.8673C29.1653 66.3387 29.3784 66.999 29.8001 67.8705C30.0816 68.4521 30.447 69.1095 30.8985 69.8437C30.9523 69.6494 31.0054 69.4539 31.059 69.2561C31.1545 68.9037 31.252 68.544 31.3598 68.1713C31.6711 67.0939 32.0518 65.9743 32.6821 64.8398C32.6834 64.8376 32.6846 64.8353 32.6859 64.833C32.6889 64.8278 32.692 64.8226 32.6951 64.8175C33.5867 63.3416 34.532 62.2548 35.6155 61.5398C36.7115 60.8166 37.9034 60.5037 39.2296 60.5037C39.2342 60.5037 39.2387 60.5038 39.2432 60.5038C39.2501 60.504 39.257 60.5042 39.264 60.5045C40.6001 60.5691 41.6795 60.7725 42.5946 61.3521C43.5125 61.9334 44.1722 62.8337 44.8028 64.0891C45.5976 65.6712 46.0187 67.353 46.4528 69.0865L46.4648 69.1343C46.7414 70.239 47.0277 71.3792 47.4192 72.5759C48.228 68.8239 48.8481 65.81 49.2802 63.5324C49.7849 60.8718 50.018 59.2877 50.018 58.6885C50.018 58.3746 50.0393 58.0326 50.0631 57.6499C50.1496 56.2619 50.2695 54.337 49.5286 51.2663L49.4465 50.9279C49.17 50.1518 49.2335 49.4372 49.6821 48.8804C50.0922 48.3715 50.7238 48.1283 51.2729 48.003C52.3856 47.7492 53.6892 47.8644 54.1329 47.9459C55.0426 48.113 56.7124 48.2602 59.0855 48.449C59.5033 48.4822 59.9416 48.5166 60.3999 48.5526C62.5227 48.7194 65.0718 48.9197 67.9766 49.1882C70.7261 49.4424 72.8334 49.5238 74.7417 49.5976C75.2651 49.6178 75.7736 49.6375 76.2762 49.66C78.6142 49.7646 80.8012 49.93 83.6936 50.5024C83.7113 50.5059 83.7288 50.5101 83.7462 50.5149C87.2043 51.4772 90.7528 54.2022 92.7989 56.8499C92.9602 56.6661 93.1197 56.4451 93.2748 56.1883C93.587 55.6714 93.8584 55.0474 94.0815 54.3819C94.5304 53.0427 94.7556 51.6205 94.7556 50.7221C94.7556 49.5118 94.5119 45.4349 91.5154 40.7812C88.5255 36.1378 82.75 30.8502 71.5658 27.2783C64.062 24.8818 58.1993 24.2273 53.9066 25.2768ZM53.5689 23.8953C58.244 22.7523 64.4111 23.5003 71.9985 25.9235C83.4515 29.5812 89.5181 35.0524 92.7112 40.0113C95.8977 44.96 96.1778 49.3288 96.1778 50.7221C96.1778 51.7989 95.9192 53.3745 95.43 54.8339C95.184 55.5677 94.8728 56.2933 94.4923 56.9234C94.1153 57.5478 93.6464 58.1181 93.0684 58.493C92.7443 58.7031 92.3119 58.6162 92.0942 58.2972C90.3225 55.7018 86.754 52.8376 83.3906 51.8923C80.6076 51.3431 78.5044 51.1833 76.2127 51.0808C75.7216 51.0588 75.2207 51.0395 74.7021 51.0194C72.7899 50.9456 70.6368 50.8624 67.8457 50.6044C64.9516 50.3369 62.4138 50.1375 60.2912 49.9707C59.832 49.9346 59.3924 49.9001 58.9727 49.8667C56.6325 49.6806 54.8749 49.5282 53.876 49.3448C53.5493 49.2848 52.4528 49.1926 51.5892 49.3896C51.15 49.4898 50.8993 49.6366 50.7896 49.7727C50.7264 49.8512 50.6268 50.0211 50.7951 50.4748C50.8048 50.5009 50.8129 50.5275 50.8194 50.5545L50.9112 50.9328C51.7089 54.2391 51.5694 56.4198 51.4812 57.7974C51.4591 58.1434 51.4402 58.4387 51.4402 58.6885C51.4402 59.4515 51.1731 61.1851 50.6775 63.7975C50.1756 66.4433 49.4238 70.0648 48.423 74.6592L48.4229 74.6594L48.2992 75.2266C48.2334 75.5281 47.9807 75.7527 47.6735 75.7827C47.3664 75.8127 47.0749 75.6412 46.9521 75.3581C46.0185 73.2068 45.5278 71.2471 45.0867 69.4859L45.0852 69.4798C44.6397 67.7009 44.2514 66.1596 43.5319 64.7275C42.9494 63.5679 42.4342 62.934 41.8336 62.5536C41.233 62.1732 40.4546 61.9873 39.2127 61.926C38.1358 61.9286 37.2292 62.1789 36.3988 62.7269C35.554 63.2844 34.7436 64.1795 33.9191 65.5418C33.3678 66.5369 33.0238 67.536 32.7261 68.5661C32.6323 68.8906 32.5413 69.2259 32.4487 69.5669C32.2537 70.2853 32.0517 71.0291 31.8026 71.7513C31.7144 72.007 31.4888 72.1905 31.2206 72.2248C30.9524 72.2591 30.6879 72.1383 30.5382 71.9131L30.4266 71.7453C29.6124 70.5152 28.9743 69.4289 28.5199 68.49C28.0699 67.5602 27.7793 66.7331 27.698 66.0308C27.454 63.9213 27.7886 62.0294 28.1624 60.5776C28.3046 60.0252 28.4558 59.525 28.5812 59.1103C28.6194 58.9839 28.6552 58.8653 28.6877 58.7557C28.759 58.5147 28.8121 58.3232 28.8455 58.1709C28.8796 58.0154 28.8807 57.9534 28.8808 57.9477C28.8808 57.9474 28.8808 57.9472 28.8808 57.9473C28.8111 57.0885 28.6765 56.1661 28.531 55.1684C28.4657 54.7209 28.3982 54.2582 28.3333 53.7793C28.1273 52.2575 27.9558 50.6169 28.0133 48.9546C28.1293 45.6011 29.1809 42.1483 32.6997 39.3207L32.7012 39.3195L32.9661 39.1078L32.9676 39.1066C37.1554 35.7783 40.9416 33.6399 44.318 32.7622C45.8517 27.9891 48.9453 25.0257 53.5689 23.8953ZM37.4363 81.6398C37.607 81.4131 37.8962 81.3096 38.172 81.3765L42.0831 82.3246C42.2632 82.3683 42.4191 82.4805 42.5177 82.6374L48.3251 91.8819C48.499 92.1588 48.4617 92.5186 48.2347 92.7539C48.0077 92.9892 47.6494 93.0394 47.3665 92.8755C45.4181 91.7469 43.588 90.2809 41.8749 88.4842C40.1616 86.6873 38.6657 84.665 37.3865 82.4196C37.2461 82.173 37.2656 81.8665 37.4363 81.6398ZM39.4979 83.1613C40.513 84.739 41.6485 86.1858 42.9043 87.5028C43.6741 88.3102 44.4652 89.0437 45.2774 89.704L41.4671 83.6387L39.4979 83.1613Z" fill="black"/>
</svg>
